<svg xmlns="http://www.w3.org/2000/svg" width="1443.294" height="832.768" viewBox="0 0 1443.294 832.768">
  <g id="Group_115" data-name="Group 115" transform="translate(0.18 0.222)">
    <path id="Vector_19" data-name="Vector 19" d="M0,0C45.833,47.5,254.3,135.3,721.5,106.5S1397.167,23.5,1443,0" transform="translate(0 120)" fill="none" stroke="#000096" stroke-width="0.5" stroke-dasharray="0 0" opacity="0.05"/>
    <path id="Vector_46" data-name="Vector 46" d="M0,0C45.833,47.5,254.3,135.3,721.5,106.5S1397.167,23.5,1443,0" transform="translate(0 96)" fill="none" stroke="#000096" stroke-width="0.5" stroke-dasharray="0 0" opacity="0.05"/>
    <path id="Vector_47" data-name="Vector 47" d="M0,0C45.833,47.5,254.3,135.3,721.5,106.5S1397.167,23.5,1443,0" transform="translate(0 72)" fill="none" stroke="#000096" stroke-width="0.5" stroke-dasharray="0 0" opacity="0.05"/>
    <path id="Vector_48" data-name="Vector 48" d="M0,0C45.833,47.5,254.3,135.3,721.5,106.5S1397.167,23.5,1443,0" transform="translate(0 48)" fill="none" stroke="#000096" stroke-width="0.5" stroke-dasharray="0 0" opacity="0.05"/>
    <path id="Vector_49" data-name="Vector 49" d="M0,0C45.833,47.5,254.3,135.3,721.5,106.5S1397.167,23.5,1443,0" transform="translate(0 24)" fill="none" stroke="#000096" stroke-width="0.5" stroke-dasharray="0 0" opacity="0.05"/>
    <path id="Vector_50" data-name="Vector 50" d="M0,0C45.833,47.5,254.3,135.3,721.5,106.5S1397.167,23.5,1443,0" fill="none" stroke="#000096" stroke-width="0.5" stroke-dasharray="0 0" opacity="0.05"/>
    <path id="Vector_20" data-name="Vector 20" d="M0,0C45.833,47.5,254.3,135.3,721.5,106.5S1397.167,23.5,1443,0" transform="translate(0 144)" fill="none" stroke="#000096" stroke-width="0.5" stroke-dasharray="0 0" opacity="0.05"/>
    <path id="Vector_21" data-name="Vector 21" d="M0,0C45.833,47.5,254.3,135.3,721.5,106.5S1397.167,23.5,1443,0" transform="translate(0 168)" fill="none" stroke="#000096" stroke-width="0.5" stroke-dasharray="0 0" opacity="0.05"/>
    <path id="Vector_22" data-name="Vector 22" d="M0,0C45.833,47.5,254.3,135.3,721.5,106.5S1397.167,23.5,1443,0" transform="translate(0 192)" fill="none" stroke="#000096" stroke-width="0.5" stroke-dasharray="0 0" opacity="0.05"/>
    <path id="Vector_23" data-name="Vector 23" d="M0,0C45.833,47.5,254.3,135.3,721.5,106.5S1397.167,23.5,1443,0" transform="translate(0 216)" fill="none" stroke="#000096" stroke-width="0.5" stroke-dasharray="0 0" opacity="0.05"/>
    <path id="Vector_24" data-name="Vector 24" d="M0,0C45.833,47.5,254.3,135.3,721.5,106.5S1397.167,23.5,1443,0" transform="translate(0 240)" fill="none" stroke="#000096" stroke-width="0.5" stroke-dasharray="0 0" opacity="0.05"/>
    <path id="Vector_25" data-name="Vector 25" d="M0,0C45.833,47.5,254.3,135.3,721.5,106.5S1397.167,23.5,1443,0" transform="translate(0 264)" fill="none" stroke="#000096" stroke-width="0.5" stroke-dasharray="0 0" opacity="0.05"/>
    <path id="Vector_26" data-name="Vector 26" d="M0,0C45.833,47.5,254.3,135.3,721.5,106.5S1397.167,23.5,1443,0" transform="translate(0 288)" fill="none" stroke="#000096" stroke-width="0.5" stroke-dasharray="0 0" opacity="0.05"/>
    <path id="Vector_27" data-name="Vector 27" d="M0,0C45.833,47.5,254.3,135.3,721.5,106.5S1397.167,23.5,1443,0" transform="translate(0 312)" fill="none" stroke="#000096" stroke-width="0.5" stroke-dasharray="0 0" opacity="0.05"/>
    <path id="Vector_28" data-name="Vector 28" d="M0,0C45.833,47.5,254.3,135.3,721.5,106.5S1397.167,23.5,1443,0" transform="translate(0 336)" fill="none" stroke="#000096" stroke-width="0.5" stroke-dasharray="0 0" opacity="0.05"/>
    <path id="Vector_29" data-name="Vector 29" d="M0,0C45.833,47.5,254.3,135.3,721.5,106.5S1397.167,23.5,1443,0" transform="translate(0 360)" fill="none" stroke="#000096" stroke-width="0.5" stroke-dasharray="0 0" opacity="0.05"/>
    <path id="Vector_30" data-name="Vector 30" d="M0,0C45.833,47.5,254.3,135.3,721.5,106.5S1397.167,23.5,1443,0" transform="translate(0 384)" fill="none" stroke="#000096" stroke-width="0.5" stroke-dasharray="0 0" opacity="0.05"/>
    <path id="Vector_31" data-name="Vector 31" d="M0,0C45.833,47.5,254.3,135.3,721.5,106.5S1397.167,23.5,1443,0" transform="translate(0 408)" fill="none" stroke="#000096" stroke-width="0.5" stroke-dasharray="0 0" opacity="0.05"/>
    <path id="Vector_32" data-name="Vector 32" d="M0,0C45.833,47.5,254.3,135.3,721.5,106.5S1397.167,23.5,1443,0" transform="translate(0 432)" fill="none" stroke="#000096" stroke-width="0.5" stroke-dasharray="0 0" opacity="0.05"/>
    <path id="Vector_33" data-name="Vector 33" d="M0,0C45.833,47.5,254.3,135.3,721.5,106.5S1397.167,23.5,1443,0" transform="translate(0 456)" fill="none" stroke="#000096" stroke-width="0.5" stroke-dasharray="0 0" opacity="0.05"/>
    <path id="Vector_34" data-name="Vector 34" d="M0,0C45.833,47.5,254.3,135.3,721.5,106.5S1397.167,23.5,1443,0" transform="translate(0 480)" fill="none" stroke="#000096" stroke-width="0.5" stroke-dasharray="0 0" opacity="0.05"/>
    <path id="Vector_35" data-name="Vector 35" d="M0,0C45.833,47.5,254.3,135.3,721.5,106.5S1397.167,23.5,1443,0" transform="translate(0 504)" fill="none" stroke="#000096" stroke-width="0.5" stroke-dasharray="0 0" opacity="0.05"/>
    <path id="Vector_36" data-name="Vector 36" d="M0,0C45.833,47.5,254.3,135.3,721.5,106.5S1397.167,23.5,1443,0" transform="translate(0 528)" fill="none" stroke="#000096" stroke-width="0.5" stroke-dasharray="0 0" opacity="0.05"/>
    <path id="Vector_37" data-name="Vector 37" d="M0,0C45.833,47.5,254.3,135.3,721.5,106.5S1397.167,23.5,1443,0" transform="translate(0 552)" fill="none" stroke="#000096" stroke-width="0.5" stroke-dasharray="0 0" opacity="0.05"/>
    <path id="Vector_38" data-name="Vector 38" d="M0,0C45.833,47.5,254.3,135.3,721.5,106.5S1397.167,23.5,1443,0" transform="translate(0 576)" fill="none" stroke="#000096" stroke-width="0.5" stroke-dasharray="0 0" opacity="0.05"/>
    <path id="Vector_39" data-name="Vector 39" d="M0,0C45.833,47.5,254.3,135.3,721.5,106.5S1397.167,23.5,1443,0" transform="translate(0 600)" fill="none" stroke="#000096" stroke-width="0.5" stroke-dasharray="0 0" opacity="0.05"/>
    <path id="Vector_40" data-name="Vector 40" d="M0,0C45.833,47.5,254.3,135.3,721.5,106.5S1397.167,23.5,1443,0" transform="translate(0 624)" fill="none" stroke="#000096" stroke-width="0.5" stroke-dasharray="0 0" opacity="0.05"/>
    <path id="Vector_41" data-name="Vector 41" d="M0,0C45.833,47.5,254.3,135.3,721.5,106.5S1397.167,23.5,1443,0" transform="translate(0 648)" fill="none" stroke="#000096" stroke-width="0.5" stroke-dasharray="0 0" opacity="0.05"/>
    <path id="Vector_42" data-name="Vector 42" d="M0,0C45.833,47.5,254.3,135.3,721.5,106.5S1397.167,23.5,1443,0" transform="translate(0 672)" fill="none" stroke="#000096" stroke-width="0.5" stroke-dasharray="0 0" opacity="0.05"/>
    <path id="Vector_43" data-name="Vector 43" d="M0,0C45.833,47.5,254.3,135.3,721.5,106.5S1397.167,23.5,1443,0" transform="translate(0 696)" fill="none" stroke="#000096" stroke-width="0.5" stroke-dasharray="0 0" opacity="0.05"/>
    <path id="Vector_44" data-name="Vector 44" d="M0,0C45.833,47.5,254.3,135.3,721.5,106.5S1397.167,23.5,1443,0" transform="translate(0 720)" fill="none" stroke="#000096" stroke-width="0.5" stroke-dasharray="0 0" opacity="0.05"/>
  </g>
</svg>
