<svg id="Component_1_1" data-name="Component 1 – 1" xmlns="http://www.w3.org/2000/svg" width="40" height="40" viewBox="0 0 40 40">
  <rect id="Rectangle_215" data-name="Rectangle 215" width="40" height="40" rx="4" fill="#000096" opacity="0.1"/>
  <path id="image_84_Traced_" data-name="image 84 (Traced)" d="M11.441,28H7.961c-4.667,0-4.71-.022-5.435-.386l-.137-.068A3.466,3.466,0,0,1,1.3,26.72,3.791,3.791,0,0,1,.072,24.445c-.1-.586-.1-20.31,0-20.9A3.347,3.347,0,0,1,.5,2.312,4.721,4.721,0,0,1,2.39.454,6.062,6.062,0,0,1,3.264.1C3.555.022,4.581.007,9.722,0l6.114,0,.48.16A4.2,4.2,0,0,1,18.15,1.319a3.309,3.309,0,0,1,.791,1.066,7.35,7.35,0,0,1,.321.77,13.994,13.994,0,0,1,.122,1.688c.043,1.291.037,1.465-.06,1.694a1.3,1.3,0,0,1-.731.646.7.7,0,0,1-.256.046,1.255,1.255,0,0,1-1.129-.823,8.168,8.168,0,0,1-.07-1.25,6.62,6.62,0,0,0-.086-1.319,2.1,2.1,0,0,0-1.341-1.471c-.354-.139-.354-.139-5.634-.161C8.961,2.2,8.066,2.2,7.324,2.2c-2.987,0-3.371.05-3.85.284A2.126,2.126,0,0,0,2.327,3.953c-.051.238-.066,3.117-.051,10.269l.019,9.94.218.428a2.076,2.076,0,0,0,1.173,1.04c.36.14.36.14,5.359.164,1.018,0,1.8.007,2.447.007,3.285,0,3.976-.06,4.384-.24a1.972,1.972,0,0,0,1.016-.974l.216-.424.032-1.472a5.173,5.173,0,0,1,.134-1.66,1.14,1.14,0,0,1,1.007-.592,1.2,1.2,0,0,1,.466.094.914.914,0,0,1,.578.56c.1.226.1.4.059,1.876a15.97,15.97,0,0,1-.122,1.875,7.3,7.3,0,0,1-.333.781,3.437,3.437,0,0,1-.822,1.1,3.466,3.466,0,0,1-1.094.826l-.137.068C16.153,27.978,16.109,28,11.441,28ZM9.7,24.142a1.108,1.108,0,0,1-.935-.5,1.17,1.17,0,0,1-.1-1.1,1.289,1.289,0,0,1,.709-.61.99.99,0,0,1,.223-.021,1.709,1.709,0,0,1,.676.129,1.337,1.337,0,0,1,.36.38.932.932,0,0,1,.194.616A1.119,1.119,0,0,1,9.7,24.142Zm3.688-4.63a1.039,1.039,0,0,1-.613-.2c-.576-.418-.612-.775-.212-2.127.465-1.577.973-3.361,1.326-4.657.148-.543.341-1.216.439-1.531.1-.334.257-.862.344-1.177.2-.723.375-1.013.728-1.193a1.1,1.1,0,0,1,.5-.12,1.156,1.156,0,0,1,1.174,1.1,4.053,4.053,0,0,1-.184.831c-.1.337-.211.706-.243.841s-.219.8-.416,1.469-.409,1.437-.473,1.7-.169.649-.24.876-.243.813-.382,1.3a20.134,20.134,0,0,1-.77,2.433,2.065,2.065,0,0,1-.35.266A1.173,1.173,0,0,1,13.389,19.512Zm-3.695-.946h0c-.34,0-.625-.15-1.218-.644-1-.836-2.278-1.94-2.48-2.147a2.638,2.638,0,0,1-.531-2.54,3.458,3.458,0,0,1,.98-1.306C7.6,10.918,9.061,9.725,9.233,9.65a1.1,1.1,0,0,1,.446-.094,1.134,1.134,0,0,1,1.147,1.088c0,.525-.146.7-1.734,2.021l-.111.093C8,13.574,7.64,13.878,7.639,14.1c0,.132.119.234.317.4l.038.033c.189.162.443.373.556.461A15.872,15.872,0,0,1,10.7,16.943a1.262,1.262,0,0,1,.032.989,1.34,1.34,0,0,1-.756.6A1.537,1.537,0,0,1,9.694,18.566Zm9.769,0a1.17,1.17,0,0,1-1-.533,1.386,1.386,0,0,1-.041-1.087,11.476,11.476,0,0,1,1.93-1.786,10.438,10.438,0,0,0,1.074-.985c.081-.227-.088-.421-1.064-1.224-.787-.649-1.595-1.344-1.73-1.488a1.16,1.16,0,0,1-.29-.993,1.042,1.042,0,0,1,.55-.764,1.4,1.4,0,0,1,.607-.139,1.026,1.026,0,0,1,.358.059A12.532,12.532,0,0,1,21.9,11.27,15.239,15.239,0,0,1,23.3,12.6a2.334,2.334,0,0,1,.387,1.606,1.741,1.741,0,0,1-.239,1.035c-.232.433-.465.661-2.266,2.216a13.409,13.409,0,0,1-1.26,1A1.086,1.086,0,0,1,19.463,18.562ZM9.7,6.123a10.891,10.891,0,0,1-1.44-.059A1.31,1.31,0,0,1,7.8,5.755a.751.751,0,0,1-.272-.56,2.35,2.35,0,0,1,.013-.536,1.093,1.093,0,0,1,.62-.715,12.888,12.888,0,0,1,1.586-.06,11.829,11.829,0,0,1,1.457.055,1.182,1.182,0,0,1,.437.284c.212.218.216.232.216.747v.525l-.248.254a1.354,1.354,0,0,1-.469.316A10.891,10.891,0,0,1,9.7,6.123Z" transform="translate(8 6)" fill="#000096"/>
</svg>
