<svg xmlns="http://www.w3.org/2000/svg" width="22.922" height="22.922" viewBox="0 0 22.922 22.922">
  <path id="_" data-name="􀌾" d="M17.039,22.922c-3.4,0-7.475-2.131-11.191-5.847S0,9.27,0,5.86A5.5,5.5,0,0,1,1.886,1.29l.02-.018.273-.241A3.456,3.456,0,0,1,4.44,0h.037A2.965,2.965,0,0,1,6.832,1.535L9.2,4.946a2.407,2.407,0,0,1-.175,3.27l-.891.9A.556.556,0,0,0,8,9.879a17.279,17.279,0,0,0,2.262,2.649,21.9,21.9,0,0,0,2.777,2.379.6.6,0,0,0,.321.107.638.638,0,0,0,.442-.224l.9-.9a2.3,2.3,0,0,1,1.649-.72,2.889,2.889,0,0,1,1.62.556l3.41,2.367a2.968,2.968,0,0,1,1.535,2.355,3.488,3.488,0,0,1-1.031,2.3c-.086.1-.178.2-.27.293A5.485,5.485,0,0,1,17.039,22.922ZM4.477,2a1.7,1.7,0,0,0-1.067.469,1.768,1.768,0,0,0-.152.126l-.07.061a4.2,4.2,0,0,0-1.395,3.2c-.054,2.749,2.067,6.673,5.4,10,3.258,3.246,6.992,5.262,9.743,5.262h.112a4.161,4.161,0,0,0,3.211-1.383l.094-.111.094-.111a1.7,1.7,0,0,0,.469-1.066.982.982,0,0,0-.481-.878l-3.41-2.273a1.008,1.008,0,0,0-.533-.173.847.847,0,0,0-.6.278L14.859,16.43a1.9,1.9,0,0,1-1.348.605,2.066,2.066,0,0,1-1.229-.442,33.872,33.872,0,0,1-3.223-2.848,30.863,30.863,0,0,1-2.731-3.106,1.851,1.851,0,0,1,.165-2.578l1.03-1.031A.828.828,0,0,0,7.618,5.9L5.343,2.485A.96.96,0,0,0,4.477,2Z" transform="translate(0 0)" fill="#050081"/>
</svg>
