<svg id="Component_1_1" data-name="Component 1 – 1" xmlns="http://www.w3.org/2000/svg" xmlns:xlink="http://www.w3.org/1999/xlink" width="40" height="40" viewBox="0 0 40 40">
  <defs>
    <clipPath id="clip-path">
      <rect id="coding_1_Background_Mask_" data-name="coding 1 (Background/Mask)" width="24" height="24" fill="none"/>
    </clipPath>
  </defs>
  <rect id="Rectangle_219" data-name="Rectangle 219" width="40" height="40" rx="4" fill="#000096" opacity="0.1"/>
  <g id="coding_1" data-name="coding 1" transform="translate(8 8)">
    <rect id="coding_1_Background_Mask_2" data-name="coding 1 (Background/Mask)" width="24" height="24" fill="none"/>
    <g id="coding_1-2" data-name="coding 1" clip-path="url(#clip-path)">
      <path id="Vector" d="M20.25,22.125H3.75A3.754,3.754,0,0,1,0,18.375V2.813A2.816,2.816,0,0,1,2.813,0H21.188A2.816,2.816,0,0,1,24,2.813V13.687a.938.938,0,0,1-1.876,0V5.672H1.875v12.7A1.877,1.877,0,0,0,3.75,20.25h16.5a1.877,1.877,0,0,0,1.875-1.875.938.938,0,0,1,1.876,0A3.754,3.754,0,0,1,20.25,22.125ZM2.813,1.875a.939.939,0,0,0-.938.938V3.8H14.756a2.81,2.81,0,0,1-.017-1.922Zm18.329,0a.938.938,0,1,0,.937.938A.939.939,0,0,0,21.141,1.875Zm-3.75,0a.938.938,0,1,0,.938.938A.939.939,0,0,0,17.391,1.875Zm-6.409,15.8a.945.945,0,0,1-.761-.377.929.929,0,0,1-.154-.821L12.2,8.984a.954.954,0,0,1,1.676-.309.928.928,0,0,1,.154.82L11.9,16.985A.952.952,0,0,1,10.982,17.672Zm5.425-.8a.937.937,0,0,1-.61-1.65l2.274-1.947a.321.321,0,0,0,.116-.248.317.317,0,0,0-.113-.245L15.8,10.837a.937.937,0,1,1,1.219-1.424l2.275,1.946a2.2,2.2,0,0,1,0,3.347L17.015,16.65A.935.935,0,0,1,16.407,16.875Zm-8.814,0a.937.937,0,0,1-.6-.22L4.67,14.71l0,0a2.2,2.2,0,0,1,0-3.349l0,0L6.991,9.407A.937.937,0,0,1,8.2,10.843L5.878,12.787a.321.321,0,0,0,0,.488L8.2,15.219a.937.937,0,0,1-.6,1.656Z" transform="translate(0 0.938)" fill="#000096"/>
    </g>
  </g>
</svg>
