<svg id="Component_1_1" data-name="Component 1 – 1" xmlns="http://www.w3.org/2000/svg" xmlns:xlink="http://www.w3.org/1999/xlink" width="40" height="40" viewBox="0 0 40 40">
  <defs>
    <clipPath id="clip-path">
      <rect id="vr-glasses_1_1_Background_Mask_" data-name="vr-glasses (1) 1 (Background/Mask)" width="28" height="28" fill="none"/>
    </clipPath>
  </defs>
  <rect id="Rectangle_220" data-name="Rectangle 220" width="40" height="40" rx="4" fill="#000096" opacity="0.1"/>
  <g id="vr-glasses_1_1" data-name="vr-glasses (1) 1" transform="translate(6 6)">
    <rect id="vr-glasses_1_1_Background_Mask_2" data-name="vr-glasses (1) 1 (Background/Mask)" width="28" height="28" fill="none"/>
    <g id="vr-glasses_1_1-2" data-name="vr-glasses (1) 1" clip-path="url(#clip-path)">
      <path id="Vector" d="M22.531,18.539h-3.5a3.6,3.6,0,0,1-3.3-2.16L15.35,15.5a1.413,1.413,0,0,0-2.589,0l-.382.876a3.6,3.6,0,0,1-3.3,2.16H5.468A5.475,5.475,0,0,1,0,13.071v-7.6A5.475,5.475,0,0,1,5.468,0H22.531A5.475,5.475,0,0,1,28,5.468V7.547a1.094,1.094,0,1,1-2.187,0V5.468a3.285,3.285,0,0,0-3.281-3.281H5.468A3.284,3.284,0,0,0,2.188,5.468v7.6a3.284,3.284,0,0,0,3.281,3.28h3.61a1.412,1.412,0,0,0,1.294-.847l.382-.876a3.6,3.6,0,0,1,6.6,0l.382.876a1.413,1.413,0,0,0,1.3.847h3.5a3.285,3.285,0,0,0,3.281-3.28,1.094,1.094,0,1,1,2.187,0A5.475,5.475,0,0,1,22.531,18.539ZM20.07,11.7a3.281,3.281,0,1,1,3.281-3.281A3.284,3.284,0,0,1,20.07,11.7Zm0-4.375a1.094,1.094,0,1,0,1.094,1.094A1.1,1.1,0,0,0,20.07,7.328ZM7.93,11.7a3.281,3.281,0,1,1,3.281-3.281A3.285,3.285,0,0,1,7.93,11.7Zm0-4.375A1.094,1.094,0,1,0,9.023,8.422,1.1,1.1,0,0,0,7.93,7.328Z" transform="translate(0 4.703)" fill="#000096"/>
    </g>
  </g>
</svg>
