<svg id="analytics_1" data-name="analytics 1" xmlns="http://www.w3.org/2000/svg" xmlns:xlink="http://www.w3.org/1999/xlink" width="40" height="40" viewBox="0 0 40 40">
  <defs>
    <clipPath id="clip-path">
      <rect id="analytics_1_Background_Mask_" data-name="analytics 1 (Background/Mask)" width="40" height="40" fill="none"/>
    </clipPath>
  </defs>
  <rect id="analytics_1_Background_Mask_2" data-name="analytics 1 (Background/Mask)" width="40" height="40" fill="none"/>
  <g id="analytics_1-2" data-name="analytics 1" clip-path="url(#clip-path)">
    <path id="XMLID_371" data-name="XMLID 371" d="M36.546,30.214H3.454a1.173,1.173,0,0,1-1.172-1.172V13.15A3.454,3.454,0,1,1,6.907,9.9a3.425,3.425,0,0,1-.239,1.261L10.3,14.355a3.459,3.459,0,0,1,1.669-.43,3.5,3.5,0,0,1,.71.073L17.87,5.6a3.416,3.416,0,0,1-.751-2.146A3.454,3.454,0,1,1,22.977,5.93l5.117,11.337c.1-.008.187-.012.268-.012a3.52,3.52,0,0,1,.663.065l4.846-8.093a3.453,3.453,0,1,1,3.846,1.065v18.75A1.173,1.173,0,0,1,36.546,30.214ZM35.375,11.282l-4.339,7.244a3.45,3.45,0,0,1-1.5,5.432V27.87h5.84ZM21.746,8.9h0V27.87h5.445V23.958a3.465,3.465,0,0,1-2.282-3.248,3.426,3.426,0,0,1,1.05-2.477ZM19.4,7.581l-4.726,7.651a3.411,3.411,0,0,1,.751,2.147,3.464,3.464,0,0,1-2.281,3.248V27.87H19.4ZM5.122,12.924a3.39,3.39,0,0,1-.5.226V27.87H10.8V20.626a3.451,3.451,0,0,1-2.043-4.51ZM28.363,19.6a1.11,1.11,0,1,0,1.11,1.11A1.111,1.111,0,0,0,28.363,19.6ZM11.974,16.268a1.11,1.11,0,1,0,1.11,1.11A1.111,1.111,0,0,0,11.974,16.268ZM3.454,8.791A1.11,1.11,0,1,0,4.564,9.9,1.112,1.112,0,0,0,3.454,8.791ZM36.546,5.934a1.11,1.11,0,1,0,1.11,1.11A1.111,1.111,0,0,0,36.546,5.934ZM20.574,2.344a1.11,1.11,0,1,0,1.11,1.11A1.111,1.111,0,0,0,20.574,2.344Z" transform="translate(0 4.893)" fill="#2fb3d0"/>
  </g>
</svg>
