<svg xmlns="http://www.w3.org/2000/svg" width="39.999" height="40" viewBox="0 0 39.999 40">
  <path id="cloud-computing_1_Traced_" data-name="cloud-computing 1 (Traced)" d="M20,40a4.282,4.282,0,0,1-4.178-3.321,4.362,4.362,0,0,1,.359-2.891,4.665,4.665,0,0,1,2.04-1.957l.606-.273V24.476h-3.9L14.9,27.562c-.022,2.97-.028,3.093-.184,3.3a2.186,2.186,0,0,1-.376.377c-.208.155-.323.162-3.069.184l-2.852.023-.117.29a4.388,4.388,0,0,1-2.882,2.643,4.142,4.142,0,0,1-1.114.135,4.4,4.4,0,0,1-1.269-.168,4.319,4.319,0,0,1-2.9-3.028A4.326,4.326,0,0,1,4.29,25.958a4.216,4.216,0,0,1,3.1,1.367,4.983,4.983,0,0,1,.985,1.631c.041.126.219.138,2.119.138h2.074V24.476H10.091c-2.619,0-3.179-.052-4.279-.4a8.381,8.381,0,0,1-5.7-9.313A8.467,8.467,0,0,1,3.6,9.271,9.416,9.416,0,0,1,5.749,8.2c.325-.1.329-.1.376-.536A8.264,8.264,0,0,1,6.988,4.64,8.435,8.435,0,0,1,13.471.074,8.646,8.646,0,0,1,14.42,0a7.362,7.362,0,0,1,.85.067,8.126,8.126,0,0,1,4.3,1.724l.507.389.551-.278A8.941,8.941,0,0,1,24.748.94c.134,0,.271,0,.408.008a9.144,9.144,0,0,1,6.41,2.791,9.169,9.169,0,0,1,2.3,3.7l.243.7.468.176a8.348,8.348,0,0,1-.393,15.765c-1.1.343-1.659.4-4.279.4H27.423v4.617H29.5c1.9,0,2.077-.012,2.118-.138a5,5,0,0,1,.986-1.631A4.281,4.281,0,0,1,39.885,31.2a4.274,4.274,0,0,1-1.493,2.386,4.225,4.225,0,0,1-2.645.927h-.028a4.055,4.055,0,0,1-3.056-1.282,3.848,3.848,0,0,1-.97-1.495l-.116-.29-2.853-.023c-2.746-.023-2.861-.029-3.068-.184a2.227,2.227,0,0,1-.377-.377c-.155-.208-.162-.332-.184-3.3l-.022-3.085h-3.9v7.081l.606.273a4.66,4.66,0,0,1,2.039,1.957,4.362,4.362,0,0,1,.36,2.891A4.283,4.283,0,0,1,20,40Zm0-6.208a1.948,1.948,0,0,0-1.648.9,1.836,1.836,0,0,0-.132,1.766A1.873,1.873,0,0,0,20,37.648a1.962,1.962,0,0,0,1.444-.642,1.928,1.928,0,0,0-.663-3.055A2.022,2.022,0,0,0,20,33.791Zm15.709-5.477a1.947,1.947,0,0,0-1.647.9,1.838,1.838,0,0,0-.133,1.766,1.875,1.875,0,0,0,1.78,1.189,1.963,1.963,0,0,0,1.444-.642,1.928,1.928,0,0,0-.661-3.056A2.025,2.025,0,0,0,35.707,28.314Zm-31.42,0a1.947,1.947,0,0,0-1.647.9,1.838,1.838,0,0,0-.133,1.766,1.875,1.875,0,0,0,1.78,1.189,1.963,1.963,0,0,0,1.444-.642,1.928,1.928,0,0,0-.661-3.056A2.032,2.032,0,0,0,4.288,28.314ZM14.231,2.365a2.335,2.335,0,0,0-.291.014A6.059,6.059,0,0,0,8.43,8.671c0,1.114-.171,1.31-1.392,1.611A6.132,6.132,0,0,0,2.514,14.7a6.958,6.958,0,0,0,.037,3A5.955,5.955,0,0,0,5.734,21.5c.083.04.157.078.227.114.949.483,1.005.511,9.891.511H20c10.782,0,12.347-.015,12.88-.122a7.211,7.211,0,0,0,2.613-1.265,6.02,6.02,0,0,0,1.34-7.618,5.886,5.886,0,0,0-3.612-2.78c-.848-.254-1.119-.475-1.257-1.027A7.445,7.445,0,0,0,28.378,4.2a6.76,6.76,0,0,0-3.5-.919c-.139,0-.282,0-.426.01a6.9,6.9,0,0,0-3.682,1.228,1.337,1.337,0,0,1-.9.314c-.415,0-.425-.005-1.04-.581a11.258,11.258,0,0,0-.981-.83,7.078,7.078,0,0,0-2-.892A8.685,8.685,0,0,0,14.231,2.365Z" fill="#2fb3d0"/>
</svg>
