<svg id="content-writing_1" data-name="content-writing 1" xmlns="http://www.w3.org/2000/svg" xmlns:xlink="http://www.w3.org/1999/xlink" width="40" height="40" viewBox="0 0 40 40">
  <defs>
    <clipPath id="clip-path">
      <rect id="content-writing_1_Background_Mask_" data-name="content-writing 1 (Background/Mask)" width="40" height="40" fill="none"/>
    </clipPath>
  </defs>
  <rect id="content-writing_1_Background_Mask_2" data-name="content-writing 1 (Background/Mask)" width="40" height="40" fill="none"/>
  <g id="content-writing_1-2" data-name="content-writing 1" clip-path="url(#clip-path)">
    <path id="Vector" d="M34.062,39.844a1.173,1.173,0,0,1-1.172-1.172V26.953H30.625V38.672a1.172,1.172,0,1,1-2.344,0V26.953H25.86V38.672a1.172,1.172,0,0,1-2.344,0V35.156h-20A3.519,3.519,0,0,1,0,31.64V3.515A3.519,3.519,0,0,1,3.515,0H36.484A3.519,3.519,0,0,1,40,3.515V31.64a3.519,3.519,0,0,1-3.515,3.515h-1.25v3.516A1.173,1.173,0,0,1,34.062,39.844ZM29.374,17.578h0a1.169,1.169,0,0,1,.975.521l4.688,7.032a1.167,1.167,0,0,1,.2.65v7.031h1.25a1.173,1.173,0,0,0,1.172-1.172V11.719H2.344V31.64a1.173,1.173,0,0,0,1.172,1.172h20V25.781a1.168,1.168,0,0,1,.2-.65L28.4,18.1A1.169,1.169,0,0,1,29.374,17.578Zm0,3.284-2.5,3.747h5ZM3.515,2.344A1.173,1.173,0,0,0,2.344,3.515v5.86H37.656V3.515a1.173,1.173,0,0,0-1.172-1.172Z" transform="translate(0 0.078)" fill="#2fb3d0"/>
    <path id="Vector-2" data-name="Vector" d="M10.547,7.031H1.172A1.173,1.173,0,0,1,0,5.859V1.172A1.173,1.173,0,0,1,1.172,0h9.375a1.173,1.173,0,0,1,1.172,1.172V5.859A1.173,1.173,0,0,1,10.547,7.031Zm-8.2-4.687V4.687H9.375V2.344Z" transform="translate(4.766 23.516)" fill="#2fb3d0"/>
    <path id="Vector-3" data-name="Vector" d="M1.172,0a1.172,1.172,0,0,0,0,2.344H22.266a1.172,1.172,0,0,0,0-2.344Z" transform="translate(4.766 14.141)" fill="#2fb3d0"/>
    <path id="Vector-4" data-name="Vector" d="M1.172,0a1.172,1.172,0,0,0,0,2.344H17.578a1.172,1.172,0,0,0,0-2.344Z" transform="translate(4.766 18.828)" fill="#2fb3d0"/>
    <path id="Vector-5" data-name="Vector" d="M1.172,2.344A1.172,1.172,0,1,1,2.344,1.172,1.172,1.172,0,0,1,1.172,2.344Z" transform="translate(4.766 4.766)" fill="#2fb3d0"/>
    <path id="Vector-6" data-name="Vector" d="M1.172,2.344A1.172,1.172,0,1,1,2.344,1.172,1.172,1.172,0,0,1,1.172,2.344Z" transform="translate(9.453 4.766)" fill="#2fb3d0"/>
    <path id="Vector-7" data-name="Vector" d="M1.172,2.344A1.172,1.172,0,1,1,2.344,1.172,1.172,1.172,0,0,1,1.172,2.344Z" transform="translate(14.141 4.766)" fill="#2fb3d0"/>
    <path id="Vector-8" data-name="Vector" d="M8.2,2.344A1.172,1.172,0,0,0,8.2,0H1.172a1.172,1.172,0,0,0,0,2.344Z" transform="translate(25.859 4.766)" fill="#2fb3d0"/>
  </g>
</svg>
