<svg id="domain-registration_1" data-name="domain-registration 1" xmlns="http://www.w3.org/2000/svg" xmlns:xlink="http://www.w3.org/1999/xlink" width="40" height="40" viewBox="0 0 40 40">
  <defs>
    <clipPath id="clip-path">
      <rect id="domain-registration_1_Background_Mask_" data-name="domain-registration 1 (Background/Mask)" width="40" height="40" fill="none"/>
    </clipPath>
  </defs>
  <rect id="domain-registration_1_Background_Mask_2" data-name="domain-registration 1 (Background/Mask)" width="40" height="40" fill="none"/>
  <g id="domain-registration_1-2" data-name="domain-registration 1" clip-path="url(#clip-path)">
    <path id="Vector" d="M20,39.844a8.161,8.161,0,0,1-4.435-1.306,8.246,8.246,0,0,1-2.976-3.383H3.515A3.519,3.519,0,0,1,0,31.64V3.515A3.519,3.519,0,0,1,3.515,0H36.484A3.519,3.519,0,0,1,40,3.515V31.64a3.519,3.519,0,0,1-3.515,3.515H27.41A8.213,8.213,0,0,1,20,39.844Zm0-14.063a5.859,5.859,0,1,0,5.86,5.859A5.866,5.866,0,0,0,20,25.781Zm0-2.344a8.211,8.211,0,0,1,8.119,9.374h8.365a1.173,1.173,0,0,0,1.172-1.172V11.719H2.344V31.64a1.173,1.173,0,0,0,1.172,1.172h8.365A8.211,8.211,0,0,1,20,23.438ZM3.515,2.344A1.173,1.173,0,0,0,2.344,3.515v5.86H37.656V3.515a1.173,1.173,0,0,0-1.172-1.172Z" transform="translate(0 0.078)" fill="#2fb3d0"/>
    <path id="Vector-2" data-name="Vector" d="M7.067.888,6.537,3.006,5.663,1.694a1.172,1.172,0,0,0-1.95,0L2.838,3.006,2.309.888a1.172,1.172,0,0,0-2.274.568L1.207,6.144a1.172,1.172,0,0,0,2.112.366L4.688,4.457,6.056,6.51a1.172,1.172,0,0,0,2.112-.366L9.34,1.457A1.172,1.172,0,0,0,8.488.035h0A1.172,1.172,0,0,0,7.067.888Z" transform="translate(4.765 14.14)" fill="#2fb3d0"/>
    <path id="Vector-3" data-name="Vector" d="M7.067.888,6.537,3.006,5.663,1.694a1.173,1.173,0,0,0-1.95,0L2.838,3.006,2.309.888a1.172,1.172,0,0,0-2.274.568L1.207,6.144a1.172,1.172,0,0,0,2.112.366L4.688,4.457,6.056,6.51a1.172,1.172,0,0,0,2.112-.366L9.34,1.457A1.172,1.172,0,0,0,8.488.035h0A1.172,1.172,0,0,0,7.067.888Z" transform="translate(15.312 14.14)" fill="#2fb3d0"/>
    <path id="Vector-4" data-name="Vector" d="M7.067.888,6.537,3.006,5.663,1.694a1.173,1.173,0,0,0-1.95,0L2.838,3.006,2.309.888a1.172,1.172,0,0,0-2.274.568L1.207,6.144a1.172,1.172,0,0,0,2.112.366L4.688,4.457,6.056,6.51a1.172,1.172,0,0,0,2.112-.366L9.34,1.456A1.172,1.172,0,0,0,8.488.035h0A1.172,1.172,0,0,0,7.067.888Z" transform="translate(25.859 14.14)" fill="#2fb3d0"/>
    <path id="Vector-5" data-name="Vector" d="M3.125,3.265,2,2.14A1.172,1.172,0,0,0,.343,3.8L2.3,5.75a1.172,1.172,0,0,0,1.657,0L7.7,2A1.172,1.172,0,1,0,6.046.343Z" transform="translate(15.937 29.375)" fill="#2fb3d0"/>
    <path id="Vector-6" data-name="Vector" d="M1.172,2.344A1.172,1.172,0,1,1,2.344,1.172,1.172,1.172,0,0,1,1.172,2.344Z" transform="translate(4.766 4.766)" fill="#2fb3d0"/>
    <path id="Vector-7" data-name="Vector" d="M1.172,2.344A1.172,1.172,0,1,1,2.344,1.172,1.172,1.172,0,0,1,1.172,2.344Z" transform="translate(9.453 4.766)" fill="#2fb3d0"/>
    <path id="Vector-8" data-name="Vector" d="M1.172,2.344A1.172,1.172,0,1,1,2.344,1.172,1.172,1.172,0,0,1,1.172,2.344Z" transform="translate(14.141 4.766)" fill="#2fb3d0"/>
    <path id="Vector-9" data-name="Vector" d="M8.2,2.344A1.172,1.172,0,0,0,8.2,0H1.172a1.172,1.172,0,0,0,0,2.344Z" transform="translate(25.859 4.766)" fill="#2fb3d0"/>
  </g>
</svg>
