<svg id="maintenance_1" data-name="maintenance 1" xmlns="http://www.w3.org/2000/svg" xmlns:xlink="http://www.w3.org/1999/xlink" width="40" height="40" viewBox="0 0 40 40">
  <defs>
    <clipPath id="clip-path">
      <rect id="maintenance_1_Background_Mask_" data-name="maintenance 1 (Background/Mask)" width="40" height="40" fill="none"/>
    </clipPath>
  </defs>
  <rect id="maintenance_1_Background_Mask_2" data-name="maintenance 1 (Background/Mask)" width="40" height="40" fill="none"/>
  <g id="maintenance_1-2" data-name="maintenance 1" clip-path="url(#clip-path)">
    <path id="Vector" d="M24.688,40a1.174,1.174,0,0,1-1.173-1.172v-6.1a1.175,1.175,0,0,1,.586-1.014A8.2,8.2,0,0,0,25.86,18.872v3.394a1.177,1.177,0,0,1-.469.937L20.7,26.718a1.169,1.169,0,0,1-1.406,0L14.61,23.2a1.177,1.177,0,0,1-.469-.937V18.872A8.2,8.2,0,0,0,15.9,31.715a1.176,1.176,0,0,1,.585,1.014v6.1a1.172,1.172,0,0,1-2.344,0V37.5H3.515A3.52,3.52,0,0,1,0,33.984V3.515A3.519,3.519,0,0,1,3.515,0H36.484A3.519,3.519,0,0,1,40,3.515V33.984A3.52,3.52,0,0,1,36.484,37.5H25.86v1.327A1.173,1.173,0,0,1,24.688,40Zm0-24.684a1.153,1.153,0,0,1,.584.159,10.549,10.549,0,0,1,.585,17.9v1.777H36.484a1.173,1.173,0,0,0,1.172-1.172V11.719H2.344V33.984a1.173,1.173,0,0,0,1.172,1.172H14.141V33.379a10.548,10.548,0,0,1,.585-17.9,1.152,1.152,0,0,1,.584-.159,1.175,1.175,0,0,1,1.175,1.173V21.68L20,24.316l3.515-2.636V16.489A1.176,1.176,0,0,1,24.691,15.316ZM3.515,2.344A1.173,1.173,0,0,0,2.344,3.515v5.86H37.656V3.515a1.173,1.173,0,0,0-1.172-1.172Z" fill="#2fb3d0"/>
    <path id="Vector-2" data-name="Vector" d="M1.172,2.344A1.172,1.172,0,1,1,2.344,1.172,1.172,1.172,0,0,1,1.172,2.344Z" transform="translate(4.766 4.688)" fill="#2fb3d0"/>
    <path id="Vector-3" data-name="Vector" d="M1.172,2.344A1.172,1.172,0,1,1,2.344,1.172,1.172,1.172,0,0,1,1.172,2.344Z" transform="translate(9.453 4.688)" fill="#2fb3d0"/>
    <path id="Vector-4" data-name="Vector" d="M1.172,2.344A1.172,1.172,0,1,1,2.344,1.172,1.172,1.172,0,0,1,1.172,2.344Z" transform="translate(14.141 4.688)" fill="#2fb3d0"/>
    <path id="Vector-5" data-name="Vector" d="M8.2,2.344A1.172,1.172,0,0,0,8.2,0H1.172a1.172,1.172,0,0,0,0,2.344Z" transform="translate(25.859 4.688)" fill="#2fb3d0"/>
  </g>
</svg>
