<svg id="web-settings_1" data-name="web-settings 1" xmlns="http://www.w3.org/2000/svg" xmlns:xlink="http://www.w3.org/1999/xlink" width="40" height="40" viewBox="0 0 40 40">
  <defs>
    <clipPath id="clip-path">
      <rect id="web-settings_1_Background_Mask_" data-name="web-settings 1 (Background/Mask)" width="40" height="40" fill="none"/>
    </clipPath>
  </defs>
  <rect id="web-settings_1_Background_Mask_2" data-name="web-settings 1 (Background/Mask)" width="40" height="40" fill="none"/>
  <g id="web-settings_1-2" data-name="web-settings 1" clip-path="url(#clip-path)">
    <path id="Vector" d="M22.343,39.844H17.656a1.173,1.173,0,0,1-1.172-1.172V36.9a10.558,10.558,0,0,1-1.031-.428L14.2,37.725a1.171,1.171,0,0,1-1.657,0L9.971,35.154H9.959c-.012,0-.015,0-.627,0H3.515A3.519,3.519,0,0,1,0,31.64V3.515A3.519,3.519,0,0,1,3.515,0H36.484A3.519,3.519,0,0,1,40,3.515V31.64a3.519,3.519,0,0,1-3.515,3.515H30.027l-2.569,2.569a1.171,1.171,0,0,1-1.657,0l-1.254-1.254a10.459,10.459,0,0,1-1.031.428v1.772A1.173,1.173,0,0,1,22.343,39.844Zm-7.1-5.986a1.17,1.17,0,0,1,.6.164,8.078,8.078,0,0,0,2.112.876,1.171,1.171,0,0,1,.88,1.135V37.5h2.344V36.032a1.172,1.172,0,0,1,.88-1.135,8.1,8.1,0,0,0,2.113-.877,1.173,1.173,0,0,1,1.426.18l1.039,1.039,1.657-1.658-1.038-1.039a1.17,1.17,0,0,1-.18-1.426,8.112,8.112,0,0,0,.877-2.112,1.171,1.171,0,0,1,1.135-.88h1.467V25.781H29.08a1.172,1.172,0,0,1-1.135-.88,8.112,8.112,0,0,0-.877-2.112,1.172,1.172,0,0,1,.18-1.426l1.038-1.039-1.657-1.657-1.039,1.039a1.172,1.172,0,0,1-1.426.179,8.124,8.124,0,0,0-2.113-.877,1.172,1.172,0,0,1-.88-1.135V16.406H18.828v1.467a1.171,1.171,0,0,1-.88,1.135,8.112,8.112,0,0,0-2.112.877,1.172,1.172,0,0,1-1.426-.179l-1.039-1.039-1.658,1.657,1.039,1.039a1.173,1.173,0,0,1,.18,1.426,8.083,8.083,0,0,0-.877,2.112,1.172,1.172,0,0,1-1.135.88H9.453v2.344h1.468a1.171,1.171,0,0,1,1.135.88,8.083,8.083,0,0,0,.877,2.112,1.172,1.172,0,0,1-.18,1.426l-1.039,1.039,1.658,1.658L14.41,34.2A1.164,1.164,0,0,1,15.238,33.858Zm14.708-3.389a10.555,10.555,0,0,1-.428,1.031l.787.786c.482.481.482.481.509.513l.011.012h5.658a1.173,1.173,0,0,0,1.172-1.172V11.719H2.344V31.64a1.173,1.173,0,0,0,1.172,1.172H9.174l.011-.012c.027-.032.027-.032.5-.5l.8-.8a10.459,10.459,0,0,1-.428-1.031H8.281A1.173,1.173,0,0,1,7.109,29.3V24.61a1.173,1.173,0,0,1,1.172-1.172h1.772a10.457,10.457,0,0,1,.428-1.031L9.228,21.153a1.171,1.171,0,0,1,0-1.657l3.315-3.315a1.171,1.171,0,0,1,1.657,0l1.254,1.254a10.557,10.557,0,0,1,1.031-.428V15.234a1.173,1.173,0,0,1,1.172-1.172h4.687a1.173,1.173,0,0,1,1.172,1.172v1.772a10.671,10.671,0,0,1,1.031.427L25.8,16.181a1.171,1.171,0,0,1,1.657,0L30.772,19.5a1.171,1.171,0,0,1,0,1.657l-1.253,1.254a10.669,10.669,0,0,1,.427,1.031h1.772A1.173,1.173,0,0,1,32.89,24.61V29.3a1.173,1.173,0,0,1-1.172,1.172H29.947ZM3.515,2.344A1.173,1.173,0,0,0,2.344,3.515v5.86H37.656V3.515a1.173,1.173,0,0,0-1.172-1.172Z" transform="translate(0 0.078)" fill="#2fb3d0"/>
    <path id="Vector-2" data-name="Vector" d="M5.859,11.719a5.859,5.859,0,1,1,5.86-5.86A5.866,5.866,0,0,1,5.859,11.719Zm0-9.375A3.516,3.516,0,1,0,9.375,5.859,3.519,3.519,0,0,0,5.859,2.344Z" transform="translate(14.141 21.172)" fill="#2fb3d0"/>
    <path id="Vector-3" data-name="Vector" d="M1.172,2.344A1.172,1.172,0,1,1,2.344,1.172,1.172,1.172,0,0,1,1.172,2.344Z" transform="translate(4.766 4.766)" fill="#2fb3d0"/>
    <path id="Vector-4" data-name="Vector" d="M1.172,2.344A1.172,1.172,0,1,1,2.344,1.172,1.172,1.172,0,0,1,1.172,2.344Z" transform="translate(9.453 4.766)" fill="#2fb3d0"/>
    <path id="Vector-5" data-name="Vector" d="M1.172,2.344A1.172,1.172,0,1,1,2.344,1.172,1.172,1.172,0,0,1,1.172,2.344Z" transform="translate(14.141 4.766)" fill="#2fb3d0"/>
    <path id="Vector-6" data-name="Vector" d="M8.2,2.344A1.172,1.172,0,0,0,8.2,0H1.172a1.172,1.172,0,0,0,0,2.344Z" transform="translate(25.859 4.766)" fill="#2fb3d0"/>
  </g>
</svg>
